<?xml version="1.0" encoding="UTF-8"?>
<svg version="1.1" xmlns="http://www.w3.org/2000/svg" width="96" height="96">
<path d="M0 0 C0 1.65 0 3.3 0 5 C3.96 5 7.92 5 12 5 C12.33 3.35 12.66 1.7 13 0 C15.64 0 18.28 0 21 0 C21.495 2.475 21.495 2.475 22 5 C26.62 5 31.24 5 36 5 C36 3.35 36 1.7 36 0 C42.75 -1.125 42.75 -1.125 45 0 C45 0.99 45 1.98 45 3 C46.36125 3.061875 46.36125 3.061875 47.75 3.125 C51 4 51 4 53.3125 6.6875 C56.70380669 13.34450943 56.17463619 20.47315085 56.203125 27.78515625 C56.20882507 28.91900253 56.21452515 30.05284882 56.22039795 31.22105408 C56.22982193 33.61228509 56.23637156 36.00352893 56.24023438 38.39477539 C56.24997504 42.05312535 56.28103779 45.71092151 56.3125 49.36914062 C56.31902724 51.69530917 56.3242788 54.02148172 56.328125 56.34765625 C56.3404718 57.44046402 56.3528186 58.53327179 56.36553955 59.65919495 C56.3374973 69.20254591 56.3374973 69.20254591 53 73 C49.18536469 75.54309021 45.88090901 75.4696823 41.44140625 75.66796875 C40.58304672 75.71190262 39.72468719 75.75583649 38.84031677 75.80110168 C37.01217468 75.89207771 35.1837932 75.97834514 33.35522461 76.06030273 C30.63109024 76.18437599 27.90856317 76.32825874 25.18554688 76.47460938 C16.14026582 76.92736208 7.14169366 77.1005194 -1.91015625 76.73828125 C-2.72197861 76.71275681 -3.53380096 76.68723236 -4.370224 76.66093445 C-10.22687403 76.35756835 -15.68610334 75.46815644 -19.875 71 C-21.71840076 67.7228431 -22.13049335 65.06836302 -22.16113281 61.38012695 C-22.17074036 60.44517899 -22.1803479 59.51023102 -22.19024658 58.54695129 C-22.19449646 57.53759018 -22.19874634 56.52822906 -22.203125 55.48828125 C-22.20882507 54.44608932 -22.21452515 53.4038974 -22.22039795 52.3301239 C-22.22984928 50.12186702 -22.23638245 47.91359602 -22.24023438 45.70532227 C-22.24991219 42.34300748 -22.28092337 38.98131121 -22.3125 35.61914062 C-22.31903306 33.47135779 -22.32428234 31.32357059 -22.328125 29.17578125 C-22.3404718 28.17654129 -22.3528186 27.17730133 -22.36553955 26.14778137 C-22.3430404 19.02034489 -21.76581108 12.83672931 -16.5625 7.5 C-14 6 -14 6 -10 6 C-9.87625 5.030625 -9.7525 4.06125 -9.625 3.0625 C-9.41875 2.051875 -9.2125 1.04125 -9 0 C-5.93109813 -1.53445094 -3.29905734 -0.54984289 0 0 Z M14 15 C14.33 15.66 14.66 16.32 15 17 C16.65 17 18.3 17 20 17 C17.1575146 15.42726432 17.1575146 15.42726432 14 15 Z " fill="#CEDDDD" transform="translate(31,10)"/>
<path d="M0 0 C0 1.65 0 3.3 0 5 C3.96 5 7.92 5 12 5 C12.33 3.35 12.66 1.7 13 0 C15.64 0 18.28 0 21 0 C21.495 2.475 21.495 2.475 22 5 C26.62 5 31.24 5 36 5 C36 3.35 36 1.7 36 0 C42.75 -1.125 42.75 -1.125 45 0 C45 0.99 45 1.98 45 3 C46.36125 3.061875 46.36125 3.061875 47.75 3.125 C51 4 51 4 53.3125 6.6875 C56.70380669 13.34450943 56.17463619 20.47315085 56.203125 27.78515625 C56.20882507 28.91900253 56.21452515 30.05284882 56.22039795 31.22105408 C56.22982193 33.61228509 56.23637156 36.00352893 56.24023438 38.39477539 C56.24997504 42.05312535 56.28103779 45.71092151 56.3125 49.36914062 C56.31902724 51.69530917 56.3242788 54.02148172 56.328125 56.34765625 C56.3404718 57.44046402 56.3528186 58.53327179 56.36553955 59.65919495 C56.3374973 69.20254591 56.3374973 69.20254591 53 73 C49.18536469 75.54309021 45.88090901 75.4696823 41.44140625 75.66796875 C40.58304672 75.71190262 39.72468719 75.75583649 38.84031677 75.80110168 C37.01217468 75.89207771 35.1837932 75.97834514 33.35522461 76.06030273 C30.63109024 76.18437599 27.90856317 76.32825874 25.18554688 76.47460938 C16.14026582 76.92736208 7.14169366 77.1005194 -1.91015625 76.73828125 C-2.72197861 76.71275681 -3.53380096 76.68723236 -4.370224 76.66093445 C-10.22687403 76.35756835 -15.68610334 75.46815644 -19.875 71 C-21.71840076 67.7228431 -22.13049335 65.06836302 -22.16113281 61.38012695 C-22.17074036 60.44517899 -22.1803479 59.51023102 -22.19024658 58.54695129 C-22.19449646 57.53759018 -22.19874634 56.52822906 -22.203125 55.48828125 C-22.20882507 54.44608932 -22.21452515 53.4038974 -22.22039795 52.3301239 C-22.22984928 50.12186702 -22.23638245 47.91359602 -22.24023438 45.70532227 C-22.24991219 42.34300748 -22.28092337 38.98131121 -22.3125 35.61914062 C-22.31903306 33.47135779 -22.32428234 31.32357059 -22.328125 29.17578125 C-22.3404718 28.17654129 -22.3528186 27.17730133 -22.36553955 26.14778137 C-22.3430404 19.02034489 -21.76581108 12.83672931 -16.5625 7.5 C-14 6 -14 6 -10 6 C-9.87625 5.030625 -9.7525 4.06125 -9.625 3.0625 C-9.41875 2.051875 -9.2125 1.04125 -9 0 C-5.93109813 -1.53445094 -3.29905734 -0.54984289 0 0 Z M14 15 C14.33 15.66 14.66 16.32 15 17 C16.65 17 18.3 17 20 17 C17.1575146 15.42726432 17.1575146 15.42726432 14 15 Z M8.5625 25.5 C5.88477054 25.54845137 3.20703383 25.59649629 0.52929688 25.64453125 C-5.98049481 25.76161485 -12.49025765 25.88020622 -19 26 C-19.09902133 31.74742629 -19.17154082 37.49435392 -19.21972656 43.24243164 C-19.23981774 45.19694673 -19.26709589 47.1514019 -19.30175781 49.10571289 C-19.35038601 51.91828208 -19.3729936 54.73005527 -19.390625 57.54296875 C-19.42159271 58.84949654 -19.42159271 58.84949654 -19.45318604 60.18241882 C-19.4547002 64.29439898 -19.34699789 66.43963978 -17.13623047 70.00976562 C-11.76386844 75.01496509 -5.0228221 74.27605275 1.875 74.1875 C2.94258545 74.17960449 4.0101709 74.17170898 5.11010742 74.16357422 C8.7405564 74.12682721 12.36997853 74.06666917 16 74 C16.68761414 73.98797546 17.37522827 73.97595093 18.0836792 73.96356201 C22.44391275 73.88595929 26.80342963 73.79218755 31.16290283 73.67959595 C32.59101825 73.64332435 34.01920499 73.60975631 35.44744873 73.57894897 C37.46130071 73.53367569 39.4748167 73.4741455 41.48828125 73.4140625 C42.64884033 73.3826416 43.80939941 73.3512207 45.00512695 73.31884766 C47.88631849 73.01210305 49.60352293 72.59105439 52 71 C53.1650499 68.6699002 53.1209358 67.32752923 53.11352539 64.73388672 C53.11344986 63.85312469 53.11337433 62.97236267 53.11329651 62.06491089 C53.10813522 61.11278717 53.10297394 60.16066345 53.09765625 59.1796875 C53.0962413 58.20589142 53.09482635 57.23209534 53.09336853 56.22879028 C53.08775973 53.11082927 53.07520573 49.9929394 53.0625 46.875 C53.05748613 44.76432395 53.05292303 42.65364678 53.04882812 40.54296875 C53.03778745 35.36195479 53.02104073 30.18098248 53 25 C38.18494461 24.88406869 23.37428265 25.22738489 8.5625 25.5 Z " fill="#191817" transform="translate(31,10)"/>
<path d="M0 0 C2.475 0.495 2.475 0.495 5 1 C5.495 3.475 5.495 3.475 6 6 C11.61 6 17.22 6 23 6 C22.67 8.31 22.34 10.62 22 13 C23.16983444 14.39681568 23.16983444 14.39681568 26.4375 14.125 C29.84105584 14.2526281 29.84105584 14.2526281 32 13 C31.41196203 9.97580475 30.77321882 6.98241547 30 4 C33.12474407 4.25335763 34.60451242 4.59087492 36.8125 6.875 C38 10 38 10 38 21 C2.36 21.495 2.36 21.495 -34 22 C-34 13.82688387 -33.4730721 11.4730721 -28 6 C-26.68 6 -25.36 6 -24 6 C-24.48828125 9.02734375 -24.48828125 9.02734375 -24.9765625 12.0546875 C-24.98429687 12.69664063 -24.99203125 13.33859375 -25 14 C-24.34 14.66 -23.68 15.32 -23 16 C-19.40320934 15.67673447 -19.40320934 15.67673447 -16 15 C-16 12.03 -16 9.06 -16 6 C-11.38 6 -6.76 6 -2 6 C-1.34 4.02 -0.68 2.04 0 0 Z M-1 13 C-0.67 13.66 -0.34 14.32 0 15 C1.65 15 3.3 15 5 15 C2.1575146 13.42726432 2.1575146 13.42726432 -1 13 Z " fill="#CA3625" transform="translate(46,12)"/>
<path d="M0 0 C0.33 0 0.66 0 1 0 C1.17102625 4.06232836 1.33598818 8.12488287 1.5 12.1875 C1.57154297 13.88422852 1.57154297 13.88422852 1.64453125 15.61523438 C1.78258564 19.07645524 1.89538748 22.53761611 2 26 C2.06767578 27.77624756 2.06767578 27.77624756 2.13671875 29.58837891 C2.16378906 30.73097168 2.19085938 31.87356445 2.21875 33.05078125 C2.24904297 34.07469971 2.27933594 35.09861816 2.31054688 36.15356445 C1.94431103 39.51043849 1.00323481 41.30340518 -1 44 C-4.81463531 46.54309021 -8.11909099 46.4696823 -12.55859375 46.66796875 C-13.41695328 46.71190262 -14.27531281 46.75583649 -15.15968323 46.80110168 C-16.98782532 46.89207771 -18.8162068 46.97834514 -20.64477539 47.06030273 C-23.36890976 47.18437599 -26.09143683 47.32825874 -28.81445312 47.47460938 C-37.85973418 47.92736208 -46.85830634 48.1005194 -55.91015625 47.73828125 C-56.72197861 47.71275681 -57.53380096 47.68723236 -58.370224 47.66093445 C-64.22687403 47.35756835 -69.68610334 46.46815644 -73.875 42 C-76.26387317 37.75311437 -76.05374269 33.97897817 -75.87890625 29.26953125 C-75.85529526 28.51911057 -75.83168427 27.76868988 -75.80735779 26.99552917 C-75.73084327 24.60098781 -75.64676674 22.20677987 -75.5625 19.8125 C-75.50926706 18.1881673 -75.45652674 16.56381838 -75.40429688 14.93945312 C-75.27524473 10.95942466 -75.13941046 6.97967856 -75 3 C-74.34 2.67 -73.68 2.34 -73 2 C-72.99589111 3.06436279 -72.99178223 4.12872559 -72.98754883 5.2253418 C-72.96572552 9.18611634 -72.91140394 13.14590195 -72.84741211 17.10620117 C-72.82425975 18.81801859 -72.80984285 20.5299779 -72.80444336 22.24194336 C-72.79513297 24.70776498 -72.75410221 27.17136374 -72.70703125 29.63671875 C-72.7109639 30.39836838 -72.71489655 31.16001801 -72.71894836 31.94474792 C-72.61122752 35.89518426 -72.15187852 37.80403032 -69.70581055 40.96020508 C-65.79118573 43.91127341 -63.05960164 44.12624026 -58.265625 44.1328125 C-57.31389404 44.13482666 -56.36216309 44.13684082 -55.3815918 44.13891602 C-54.3481665 44.13432373 -53.31474121 44.12973145 -52.25 44.125 C-51.17339111 44.12234131 -50.09678223 44.11968262 -48.98754883 44.11694336 C-39.5505286 44.06422258 -30.12009574 43.83996083 -20.6875 43.5625 C-19.98314819 43.5429425 -19.27879639 43.52338501 -18.55310059 43.50323486 C-16.5391574 43.44598781 -14.52542874 43.38134056 -12.51171875 43.31640625 C-10.77088013 43.26141968 -10.77088013 43.26141968 -8.99487305 43.20532227 C-5.79980396 43.07434314 -5.79980396 43.07434314 -2 42 C-1.34 28.14 -0.68 14.28 0 0 Z " fill="#0A0A0A" transform="translate(85,39)"/>
<path d="M0 0 C2.00720923 0.28674418 4.0085944 0.61866701 6 1 C6 2.65 6 4.3 6 6 C9.96 6 13.92 6 18 6 C18.33 4.35 18.66 2.7 19 1 C21.64 1 24.28 1 27 1 C27.33 2.65 27.66 4.3 28 6 C32.62 6 37.24 6 42 6 C42 4.35 42 2.7 42 1 C42.99 1.33 43.98 1.66 45 2 C45.495 6.95 45.495 6.95 46 12 C46.99 12 47.98 12 49 12 C49.33 10.35 49.66 8.7 50 7 C52.0625 9.1875 52.0625 9.1875 54 12 C53.875 14.75 53.875 14.75 53 17 C49.98675805 18.50662097 47.31713623 18.17770373 44 18 C43.34 17.34 42.68 16.68 42 16 C42.3269756 13.38419521 42.82039068 11.35921863 44 9 C38.39 9 32.78 9 27 9 C26.67 9.99 26.34 10.98 26 12 C25.67 9.36 25.34 6.72 25 4 C23.68 4 22.36 4 21 4 C20.67 6.31 20.34 8.62 20 11 C19.67 10.34 19.34 9.68 19 9 C14.05 9 9.1 9 4 9 C3.67 9.99 3.34 10.98 3 12 C3 8.7 3 5.4 3 2 C1.68 1.67 0.36 1.34 -1 1 C-0.67 0.67 -0.34 0.34 0 0 Z " fill="#0A0301" transform="translate(25,9)"/>
<path d="M0 0 C2.00720923 0.28674418 4.0085944 0.61866701 6 1 C6 1.99 6 2.98 6 4 C7.36125 4.061875 7.36125 4.061875 8.75 4.125 C12 5 12 5 14.3125 7.6875 C17.43353221 13.81397064 17.39594121 20.2340634 17 27 C16.505 28.485 16.505 28.485 16 30 C15.85426942 31.47965926 15.75336732 32.96403843 15.68359375 34.44921875 C15.64169922 35.29677734 15.59980469 36.14433594 15.55664062 37.01757812 C15.51732422 37.89865234 15.47800781 38.77972656 15.4375 39.6875 C15.37272461 41.02651367 15.37272461 41.02651367 15.30664062 42.39257812 C15.20064647 44.59490108 15.09857949 46.79733473 15 49 C14.67 49 14.34 49 14 49 C14 41.41 14 33.82 14 26 C-18.67 25.505 -18.67 25.505 -52 25 C-52 24.67 -52 24.34 -52 24 C-30.22 24 -8.44 24 14 24 C13.8916058 14.91304097 13.8916058 14.91304097 10 8 C7.40877257 7.11341534 7.40877257 7.11341534 5 7 C4.67 8.65 4.34 10.3 4 12 C3.01 12 2.02 12 1 12 C0.63896464 10.18885568 0.28634496 8.37603177 -0.0625 6.5625 C-0.35833984 5.04849609 -0.35833984 5.04849609 -0.66015625 3.50390625 C-0.77230469 2.67761719 -0.88445312 1.85132813 -1 1 C-0.67 0.67 -0.34 0.34 0 0 Z " fill="#240D0A" transform="translate(70,9)"/>
<path d="M0 0 C0.33 0 0.66 0 1 0 C1.00410889 1.06436279 1.00821777 2.12872559 1.01245117 3.2253418 C1.03427448 7.18611634 1.08859606 11.14590195 1.15258789 15.10620117 C1.17574025 16.81801859 1.19015715 18.5299779 1.19555664 20.24194336 C1.20486703 22.70776498 1.24589779 25.17136374 1.29296875 27.63671875 C1.2890361 28.39836838 1.28510345 29.16001801 1.28105164 29.94474792 C1.38877248 33.89518426 1.84812148 35.80403032 4.29418945 38.96020508 C8.10599934 41.83376563 10.88937961 42.09611931 15.546875 42.31640625 C16.81337891 42.37924805 16.81337891 42.37924805 18.10546875 42.44335938 C18.97816406 42.48267578 19.85085937 42.52199219 20.75 42.5625 C21.63816406 42.60568359 22.52632812 42.64886719 23.44140625 42.69335938 C25.62745963 42.79913615 27.81362089 42.90122546 30 43 C29.67 43.99 29.34 44.98 29 46 C25.81151438 45.91831339 22.62483013 45.80554926 19.4375 45.6875 C18.54224609 45.66494141 17.64699219 45.64238281 16.72460938 45.61914062 C10.4290719 45.36547428 4.66231518 44.83980285 0.125 40 C-2.25369473 35.77120937 -2.06872329 31.99723805 -1.9140625 27.3046875 C-1.89282318 26.55663849 -1.87158386 25.80858948 -1.84970093 25.03787231 C-1.80349565 23.45925035 -1.75457205 21.88070593 -1.703125 20.30224609 C-1.6250786 17.87744201 -1.55803791 15.45250633 -1.4921875 13.02734375 C-1.44597035 11.49477169 -1.39911732 9.96221864 -1.3515625 8.4296875 C-1.33171295 7.70055145 -1.3118634 6.97141541 -1.29141235 6.22018433 C-1.1150947 1.1150947 -1.1150947 1.1150947 0 0 Z " fill="#040404" transform="translate(11,41)"/>
<path d="M0 0 C1.65 0.33 3.3 0.66 5 1 C5 3.64 5 6.28 5 9 C6.32 9.66 7.64 10.32 9 11 C8.6875 13.375 8.6875 13.375 8 16 C5 18 5 18 1.4375 17.75 C-2 17 -2 17 -4 15 C-3.9765625 12.8359375 -3.9765625 12.8359375 -3.625 10.375 C-3.51414063 9.55773438 -3.40328125 8.74046875 -3.2890625 7.8984375 C-3.19367187 7.27195312 -3.09828125 6.64546875 -3 6 C-2.67 6 -2.34 6 -2 6 C-1.34 4.02 -0.68 2.04 0 0 Z M-1 13 C-0.67 13.66 -0.34 14.32 0 15 C1.65 15 3.3 15 5 15 C2.1575146 13.42726432 2.1575146 13.42726432 -1 13 Z " fill="#160903" transform="translate(46,12)"/>
<path d="M0 0 C4.62 0 9.24 0 14 0 C14 3.3 14 6.6 14 10 C9.38 10 4.76 10 0 10 C0 6.7 0 3.4 0 0 Z " fill="#0D0E0E" transform="translate(24,68)"/>
<path d="M0 0 C2.3821875 0.0309375 2.3821875 0.0309375 4.8125 0.0625 C4.8125 3.6925 4.8125 7.3225 4.8125 11.0625 C0.5225 11.0625 -3.7675 11.0625 -8.1875 11.0625 C-8.1875 7.7625 -8.1875 4.4625 -8.1875 1.0625 C-5.17259443 0.05753148 -3.14568308 -0.04085303 0 0 Z " fill="#040404" transform="translate(33.1875,40.9375)"/>
<path d="M0 0 C1.50046875 0.00386719 1.50046875 0.00386719 3.03125 0.0078125 C4.0315625 0.00523438 5.031875 0.00265625 6.0625 0 C8.53125 0.1328125 8.53125 0.1328125 9.53125 1.1328125 C9.67382189 4.46899481 9.57353157 7.79256856 9.53125 11.1328125 C5.90125 11.1328125 2.27125 11.1328125 -1.46875 11.1328125 C-3.46387373 7.14256503 -3.75602578 5.44194917 -3.46875 1.1328125 C-2.46875 0.1328125 -2.46875 0.1328125 0 0 Z " fill="#232525" transform="translate(63.46875,39.8671875)"/>
<path d="M0 0 C1.97909398 -0.02686553 3.95828971 -0.04633375 5.9375 -0.0625 C7.03964844 -0.07410156 8.14179687 -0.08570313 9.27734375 -0.09765625 C12 0 12 0 13 1 C13.14193337 4.00331018 13.04236378 6.99217134 13 10 C8.71 10 4.42 10 0 10 C0 6.7 0 3.4 0 0 Z " fill="#0F1111" transform="translate(60,54)"/>
<path d="M0 0 C0.89589844 -0.01417969 1.79179688 -0.02835937 2.71484375 -0.04296875 C5.0625 0.1875 5.0625 0.1875 7.0625 2.1875 C7.33241906 4.87589385 7.14987357 7.47891936 7.0625 10.1875 C2.7725 10.1875 -1.5175 10.1875 -5.9375 10.1875 C-6.03515625 3.25390625 -6.03515625 3.25390625 -5.9375 1.1875 C-4.27188601 -0.47811399 -2.27787295 0.01634055 0 0 Z " fill="#383C3C" transform="translate(65.9375,66.8125)"/>
<path d="M0 0 C1.79244141 0.01740234 1.79244141 0.01740234 3.62109375 0.03515625 C5.41740234 0.04869141 5.41740234 0.04869141 7.25 0.0625 C8.17683594 0.07410156 9.10367188 0.08570313 10.05859375 0.09765625 C10.05859375 3.06765625 10.05859375 6.03765625 10.05859375 9.09765625 C5.43859375 9.09765625 0.81859375 9.09765625 -3.94140625 9.09765625 C-4.0390625 2.9453125 -4.0390625 2.9453125 -3.94140625 1.09765625 C-2.94140625 0.09765625 -2.94140625 0.09765625 0 0 Z " fill="#1D1F1F" transform="translate(27.94140625,54.90234375)"/>
<path d="M0 0 C1.32 0 2.64 0 4 0 C4.12375 0.928125 4.2475 1.85625 4.375 2.8125 C4.81533082 6.13925235 4.81533082 6.13925235 7 9 C7.3125 12.0625 7.3125 12.0625 7 15 C3.76746204 17.15502531 2.74849077 17.46856135 -1 17 C-2.875 15.8125 -2.875 15.8125 -4 14 C-3.72032432 9.2455134 -1.55389866 4.48578293 0 0 Z " fill="#170B02" transform="translate(24,12)"/>
<path d="M0 0 C3.96 0 7.92 0 12 0 C12 3.3 12 6.6 12 10 C8.04 10 4.08 10 0 10 C0 6.7 0 3.4 0 0 Z " fill="#030404" transform="translate(44,68)"/>
<path d="M0 0 C3.96 0 7.92 0 12 0 C12 3.3 12 6.6 12 10 C8.04 10 4.08 10 0 10 C0 6.7 0 3.4 0 0 Z " fill="#0C0C0C" transform="translate(44,40)"/>
<path d="M0 0 C3.96 0 7.92 0 12 0 C12 3.3 12 6.6 12 10 C10.18757948 10.02687279 8.37504767 10.04633715 6.5625 10.0625 C5.55316406 10.07410156 4.54382812 10.08570312 3.50390625 10.09765625 C1 10 1 10 0 9 C-0.14193337 5.99668982 -0.04236378 3.00782866 0 0 Z " fill="#121414" transform="translate(44,54)"/>
<path d="M0 0 C2.97 0 5.94 0 9 0 C9 2.31 9 4.62 9 7 C6.03 7 3.06 7 0 7 C0 4.69 0 2.38 0 0 Z " fill="#D2E1E1" transform="translate(27,43)"/>
<path d="M0 0 C3.3 0 6.6 0 10 0 C10 1.98 10 3.96 10 6 C6.7 6 3.4 6 0 6 C0 4.02 0 2.04 0 0 Z " fill="#D1E0E0" transform="translate(26,70)"/>
<path d="M0 0 C2.97 0 5.94 0 9 0 C9 2.31 9 4.62 9 7 C6.36 6.67 3.72 6.34 1 6 C0.67 4.02 0.34 2.04 0 0 Z " fill="#BDCACA" transform="translate(62,42)"/>
<path d="M0 0 C1.32 0 2.64 0 4 0 C4 3.63 4 7.26 4 11 C2.35 10.67 0.7 10.34 -1 10 C-1.02689216 8.52093108 -1.04634621 7.04172517 -1.0625 5.5625 C-1.07410156 4.73878906 -1.08570313 3.91507813 -1.09765625 3.06640625 C-1 1 -1 1 0 0 Z " fill="#E2AA0E" transform="translate(46,12)"/>
<path d="M0 0 C3.3 0 6.6 0 10 0 C10 1.65 10 3.3 10 5 C6.7 5 3.4 5 0 5 C0 3.35 0 1.7 0 0 Z " fill="#D2E1E1" transform="translate(26,57)"/>
<path d="M0 0 C2.64 0 5.28 0 8 0 C8 1.98 8 3.96 8 6 C5.36 6 2.72 6 0 6 C0 4.02 0 2.04 0 0 Z " fill="#D5E4E4" transform="translate(46,70)"/>
<path d="M0 0 C2.64 0 5.28 0 8 0 C8 1.98 8 3.96 8 6 C5.36 6 2.72 6 0 6 C0 4.02 0 2.04 0 0 Z " fill="#D1DFDF" transform="translate(62,56)"/>
<path d="M0 0 C2.64 0 5.28 0 8 0 C8 1.98 8 3.96 8 6 C5.36 6 2.72 6 0 6 C0 4.02 0 2.04 0 0 Z " fill="#CBD9D9" transform="translate(46,56)"/>
<path d="M0 0 C2.64 0 5.28 0 8 0 C8 1.98 8 3.96 8 6 C5.36 6 2.72 6 0 6 C0 4.02 0 2.04 0 0 Z " fill="#D1E0E0" transform="translate(46,42)"/>
<path d="M0 0 C2.97 0 5.94 0 9 0 C9 1.65 9 3.3 9 5 C6.03 5 3.06 5 0 5 C0 3.35 0 1.7 0 0 Z " fill="#D2E1E1" transform="translate(62,70)"/>
<path d="M0 0 C1.32 0 2.64 0 4 0 C4 3.3 4 6.6 4 10 C2.68 10 1.36 10 0 10 C0 6.7 0 3.4 0 0 Z " fill="#F2B60F" transform="translate(24,12)"/>
<path d="M0 0 C0.66 0 1.32 0 2 0 C2 2.97 2 5.94 2 9 C-1.3 9 -4.6 9 -8 9 C-6 7 -6 7 -3.375 6.875 C-2.59125 6.91625 -1.8075 6.9575 -1 7 C-1.020625 6.030625 -1.04125 5.06125 -1.0625 4.0625 C-1 1 -1 1 0 0 Z " fill="#343838" transform="translate(71,55)"/>
<path d="M0 0 C0.90105469 0.00902344 1.80210938 0.01804688 2.73046875 0.02734375 C3.41753906 0.03894531 4.10460938 0.05054688 4.8125 0.0625 C4.4825 3.0325 4.1525 6.0025 3.8125 9.0625 C3.4825 9.0625 3.1525 9.0625 2.8125 9.0625 C2.8125 6.7525 2.8125 4.4425 2.8125 2.0625 C-0.1575 2.0625 -3.1275 2.0625 -6.1875 2.0625 C-6.1875 4.3725 -6.1875 6.6825 -6.1875 9.0625 C-6.5175 9.0625 -6.8475 9.0625 -7.1875 9.0625 C-7.5175 6.4225 -7.8475 3.7825 -8.1875 1.0625 C-5.17259443 0.05753148 -3.14568308 -0.04085303 0 0 Z " fill="#222525" transform="translate(33.1875,40.9375)"/>
<path d="M0 0 C2 2 2 2 2 5 C5.3 5 8.6 5 12 5 C12.33 4.01 12.66 3.02 13 2 C13 3.65 13 5.3 13 7 C8.71 7 4.42 7 0 7 C0 4.69 0 2.38 0 0 Z " fill="#060606" transform="translate(60,70)"/>
<path d="M0 0 C0.33 0 0.66 0 1 0 C1 1.98 1 3.96 1 6 C4.3 6 7.6 6 11 6 C9 8 9 8 6.6171875 8.1953125 C5.71226563 8.17210938 4.80734375 8.14890625 3.875 8.125 C2.50988281 8.09792969 2.50988281 8.09792969 1.1171875 8.0703125 C0.41851563 8.04710938 -0.28015625 8.02390625 -1 8 C-1.125 2.25 -1.125 2.25 0 0 Z " fill="#080808" transform="translate(25,70)"/>
<path d="M0 0 C1.32 0 2.64 0 4 0 C4 2.97 4 5.94 4 9 C3.01 9 2.02 9 1 9 C0.67 6.03 0.34 3.06 0 0 Z " fill="#E4AC0E" transform="translate(70,12)"/>
<path d="M0 0 C0.33 0 0.66 0 1 0 C1 3.3 1 6.6 1 10 C-2.63 10 -6.26 10 -10 10 C-10 9.67 -10 9.34 -10 9 C-7.36 8.67 -4.72 8.34 -2 8 C-1.34 5.36 -0.68 2.72 0 0 Z " fill="#343838" transform="translate(72,41)"/>
<path d="M0 0 C1.65 0 3.3 0 5 0 C3.68 0.33 2.36 0.66 1 1 C1 2.98 1 4.96 1 7 C1.99 7.33 2.98 7.66 4 8 C2.35 8.33 0.7 8.66 -1 9 C-0.67 6.03 -0.34 3.06 0 0 Z " fill="#212323" transform="translate(45,69)"/>
<path d="M0 0 C0 2.64 0 5.28 0 8 C-0.33 8 -0.66 8 -1 8 C-1.33 6.35 -1.66 4.7 -2 3 C-4.64 2.67 -7.28 2.34 -10 2 C-10 1.67 -10 1.34 -10 1 C-2.25 0 -2.25 0 0 0 Z " fill="#252828" transform="translate(56,40)"/>
<path d="M0 0 C1.4606285 2.64738916 2 3.89448334 2 7 C-0.97 6.67 -3.94 6.34 -7 6 C-7 5.67 -7 5.34 -7 5 C-4.69 5 -2.38 5 0 5 C0 3.35 0 1.7 0 0 Z " fill="#1F2121" transform="translate(54,57)"/>
</svg>
